<svg id="svg" version="1.1" xmlns="http://www.w3.org/2000/svg" xmlns:xlink="http://www.w3.org/1999/xlink" width="400" height="225" viewBox="0, 0, 400,225"><g id="svgg"><path id="path0" d="M192.829 32.302 C 192.643 32.487,192.430 32.639,192.355 32.639 C 192.279 32.639,191.742 33.095,191.161 33.652 C 190.579 34.209,190.026 34.665,189.931 34.665 C 189.836 34.665,189.758 34.817,189.758 35.003 C 189.758 35.189,189.563 35.340,189.324 35.340 C 189.086 35.340,188.691 35.594,188.448 35.903 C 188.204 36.213,187.936 36.466,187.852 36.466 C 187.613 36.466,187.057 37.084,187.057 37.350 C 187.057 37.483,186.863 37.591,186.626 37.591 C 186.389 37.591,185.578 38.199,184.824 38.942 C 184.070 39.685,183.376 40.293,183.283 40.293 C 182.967 40.293,181.880 41.434,181.880 41.765 C 181.880 41.946,181.677 42.093,181.429 42.093 C 181.182 42.093,180.979 42.195,180.979 42.319 C 180.979 42.442,180.827 42.544,180.642 42.544 C 180.456 42.544,180.304 42.696,180.304 42.881 C 180.304 43.067,180.203 43.219,180.079 43.219 C 179.955 43.219,179.854 43.357,179.854 43.525 C 179.854 43.731,179.668 43.796,179.291 43.724 C 178.878 43.645,178.728 43.714,178.728 43.981 C 178.728 44.181,178.641 44.344,178.535 44.344 C 178.428 44.344,177.965 44.699,177.506 45.132 C 177.046 45.566,176.527 45.920,176.353 45.920 C 176.178 45.920,175.972 46.173,175.894 46.483 C 175.817 46.792,175.598 47.046,175.409 47.046 C 175.220 47.046,174.831 47.299,174.544 47.608 C 174.257 47.918,173.911 48.171,173.773 48.171 C 173.636 48.171,173.580 48.262,173.649 48.372 C 173.717 48.483,173.520 48.637,173.212 48.714 C 172.903 48.792,172.651 48.950,172.651 49.067 C 172.651 49.321,171.496 50.422,171.230 50.422 C 170.962 50.422,170.400 51.021,170.400 51.306 C 170.400 51.439,170.248 51.548,170.062 51.548 C 169.876 51.548,169.724 51.649,169.724 51.773 C 169.724 51.896,169.590 51.998,169.426 51.998 C 169.263 51.998,168.586 52.504,167.923 53.123 C 167.261 53.742,166.659 54.249,166.586 54.249 C 166.514 54.249,166.264 54.502,166.032 54.811 C 165.800 55.121,165.497 55.377,165.360 55.380 C 165.022 55.388,163.196 57.078,163.196 57.383 C 163.196 57.516,163.091 57.625,162.962 57.625 C 162.741 57.625,162.486 57.801,161.742 58.469 C 161.569 58.624,161.357 58.751,161.269 58.751 C 161.182 58.751,160.777 59.105,160.368 59.539 C 159.959 59.972,159.526 60.326,159.406 60.326 C 159.285 60.326,158.661 60.833,158.019 61.452 C 157.377 62.071,156.806 62.577,156.750 62.577 C 156.694 62.577,156.376 62.831,156.042 63.140 C 155.708 63.450,155.307 63.703,155.151 63.703 C 154.995 63.703,154.868 63.956,154.868 64.266 C 154.868 64.690,154.750 64.828,154.388 64.828 C 154.124 64.828,153.574 65.183,153.165 65.616 C 152.756 66.050,152.314 66.404,152.182 66.404 C 152.050 66.404,151.941 66.556,151.941 66.742 C 151.941 66.929,151.741 67.079,151.491 67.079 C 151.244 67.079,151.041 67.181,151.041 67.304 C 151.041 67.428,150.889 67.530,150.703 67.530 C 150.518 67.530,150.366 67.681,150.366 67.867 C 150.366 68.053,150.214 68.205,150.028 68.205 C 149.842 68.205,149.690 68.306,149.690 68.430 C 149.690 68.554,149.545 68.655,149.366 68.655 C 149.188 68.655,148.969 68.772,148.881 68.915 C 148.773 69.089,148.825 69.115,149.037 68.994 C 149.211 68.895,149.129 69.031,148.856 69.297 C 148.582 69.563,148.279 69.782,148.180 69.785 C 148.082 69.787,147.598 70.142,147.104 70.573 C 146.610 71.004,146.129 71.356,146.035 71.356 C 145.941 71.356,145.864 71.465,145.864 71.597 C 145.864 71.898,145.296 72.482,145.004 72.482 C 144.884 72.482,144.728 72.634,144.657 72.819 C 144.586 73.005,144.365 73.157,144.167 73.157 C 143.756 73.157,143.163 73.680,143.163 74.041 C 143.163 74.174,143.054 74.282,142.921 74.282 C 142.610 74.282,142.037 74.855,142.037 75.167 C 142.037 75.299,141.837 75.408,141.592 75.408 C 141.347 75.408,140.663 75.896,140.072 76.492 C 139.482 77.089,138.694 77.769,138.323 78.004 C 137.952 78.239,137.405 78.714,137.109 79.058 C 136.812 79.403,136.432 79.685,136.264 79.685 C 136.097 79.685,135.959 79.837,135.959 80.023 C 135.959 80.208,135.851 80.360,135.718 80.360 C 135.586 80.360,135.346 80.487,135.186 80.642 C 135.026 80.796,134.460 81.277,133.929 81.711 C 133.397 82.144,132.670 82.777,132.314 83.118 C 131.958 83.458,131.535 83.737,131.373 83.737 C 131.212 83.737,130.964 83.990,130.823 84.299 C 130.682 84.609,130.456 84.862,130.320 84.862 C 130.044 84.862,128.723 86.115,128.766 86.335 C 128.782 86.412,128.719 86.543,128.626 86.625 C 128.534 86.708,128.532 86.649,128.621 86.494 C 128.710 86.339,128.672 86.213,128.537 86.213 C 128.402 86.213,128.225 86.390,128.143 86.607 C 127.928 87.173,127.494 87.563,127.077 87.563 C 126.879 87.563,126.658 87.715,126.587 87.901 C 126.515 88.087,126.359 88.239,126.240 88.239 C 126.019 88.239,125.731 88.499,125.189 89.189 C 124.878 89.586,125.242 90.940,125.660 90.940 C 125.753 90.940,125.830 91.094,125.830 91.282 C 125.830 91.471,126.083 91.740,126.393 91.881 C 126.702 92.022,126.956 92.276,126.956 92.446 C 126.956 92.616,127.107 92.813,127.293 92.884 C 127.479 92.956,127.631 93.131,127.631 93.274 C 127.631 93.417,127.884 93.724,128.194 93.957 C 128.503 94.189,128.756 94.568,128.756 94.798 C 128.756 95.058,128.917 95.217,129.180 95.217 C 129.413 95.217,129.664 95.394,129.736 95.611 C 130.014 96.437,130.835 97.468,131.216 97.468 C 131.349 97.468,131.458 97.620,131.458 97.805 C 131.458 97.991,131.552 98.143,131.667 98.143 C 131.783 98.143,131.942 98.347,132.021 98.596 C 132.100 98.846,132.259 98.992,132.374 98.921 C 132.489 98.850,132.583 98.954,132.583 99.152 C 132.583 99.351,133.191 100.128,133.934 100.880 C 134.676 101.632,135.284 102.374,135.284 102.527 C 135.284 102.681,135.537 102.997,135.847 103.230 C 136.156 103.462,136.410 103.780,136.410 103.936 C 136.410 104.093,136.518 104.221,136.651 104.221 C 136.913 104.221,137.535 104.775,137.535 105.008 C 137.535 105.088,137.662 105.294,137.817 105.467 C 138.485 106.212,138.661 106.466,138.661 106.687 C 138.661 106.816,138.813 106.922,138.998 106.922 C 139.184 106.922,139.336 107.051,139.336 107.210 C 139.336 107.368,139.539 107.644,139.786 107.822 C 140.034 108.001,140.236 108.257,140.236 108.392 C 140.236 108.526,140.743 109.162,141.362 109.804 C 141.981 110.447,142.487 111.074,142.487 111.198 C 142.487 111.322,142.639 111.424,142.825 111.424 C 143.011 111.424,143.163 111.576,143.163 111.761 C 143.163 111.947,143.264 112.099,143.388 112.099 C 143.512 112.099,143.613 112.302,143.613 112.549 C 143.613 112.879,143.763 112.999,144.176 112.999 C 144.626 112.999,144.738 113.112,144.738 113.562 C 144.738 113.912,144.866 114.125,145.076 114.125 C 145.262 114.125,145.414 114.253,145.414 114.409 C 145.414 114.565,145.665 114.882,145.972 115.113 C 146.279 115.343,146.476 115.621,146.409 115.729 C 146.342 115.837,146.445 115.926,146.638 115.926 C 146.831 115.926,146.989 116.091,146.989 116.294 C 146.989 116.496,147.243 116.897,147.552 117.183 C 147.862 117.470,148.115 117.811,148.115 117.941 C 148.115 118.071,148.209 118.177,148.325 118.177 C 148.440 118.177,148.597 118.374,148.674 118.615 C 148.750 118.857,149.011 119.117,149.252 119.193 C 149.493 119.270,149.690 119.481,149.690 119.662 C 149.690 119.843,149.842 120.050,150.028 120.121 C 150.214 120.192,150.366 120.340,150.366 120.449 C 150.366 120.777,151.107 121.539,151.306 121.416 C 151.408 121.353,151.491 121.416,151.491 121.556 C 151.491 121.858,152.050 122.454,152.334 122.454 C 152.443 122.454,152.672 122.808,152.842 123.241 C 153.012 123.675,153.385 124.205,153.672 124.420 C 153.958 124.635,154.192 124.939,154.192 125.096 C 154.192 125.252,154.301 125.380,154.434 125.380 C 154.756 125.380,155.318 125.957,155.318 126.289 C 155.318 126.561,155.924 127.299,156.852 128.156 C 157.138 128.421,157.591 128.994,157.856 129.429 C 158.387 130.297,158.809 130.782,159.032 130.782 C 159.266 130.782,159.820 131.404,159.820 131.667 C 159.820 131.799,159.921 131.908,160.045 131.908 C 160.169 131.908,160.270 132.060,160.270 132.245 C 160.270 132.431,160.422 132.583,160.608 132.583 C 160.793 132.583,160.945 132.717,160.945 132.880 C 160.945 133.043,161.300 133.575,161.733 134.062 C 162.166 134.548,162.521 135.023,162.521 135.115 C 162.521 135.208,162.673 135.284,162.859 135.284 C 163.044 135.284,163.196 135.436,163.196 135.622 C 163.196 135.808,163.298 135.959,163.421 135.959 C 163.545 135.959,163.647 136.146,163.647 136.374 C 163.647 136.601,163.900 136.903,164.209 137.044 C 164.519 137.185,164.772 137.409,164.772 137.541 C 164.772 137.673,165.025 138.016,165.335 138.303 C 165.644 138.590,165.898 138.896,165.898 138.984 C 165.898 139.183,166.490 139.786,166.685 139.786 C 166.965 139.786,167.473 140.433,167.473 140.790 C 167.473 140.989,167.625 141.209,167.811 141.280 C 167.997 141.352,168.149 141.508,168.149 141.627 C 168.149 141.919,168.733 142.487,169.033 142.487 C 169.166 142.487,169.274 142.639,169.274 142.825 C 169.274 143.011,169.375 143.163,169.499 143.163 C 169.623 143.163,169.724 143.316,169.724 143.503 C 169.724 143.691,170.205 144.326,170.793 144.916 C 171.382 145.506,172.296 146.568,172.827 147.277 C 173.357 147.985,173.889 148.565,174.008 148.565 C 174.128 148.565,174.226 148.674,174.226 148.806 C 174.226 149.118,174.799 149.690,175.111 149.690 C 175.243 149.690,175.352 149.848,175.352 150.041 C 175.352 150.234,175.453 150.330,175.577 150.253 C 175.701 150.177,175.802 150.307,175.802 150.542 C 175.802 150.778,176.308 151.499,176.927 152.145 C 177.546 152.790,178.053 153.405,178.053 153.511 C 178.053 153.617,178.559 154.237,179.178 154.890 C 179.797 155.542,180.304 156.159,180.304 156.260 C 180.304 156.361,180.456 156.443,180.642 156.443 C 180.829 156.443,180.979 156.644,180.979 156.894 C 180.979 157.141,181.076 157.344,181.195 157.344 C 181.314 157.344,181.679 157.622,182.007 157.963 C 182.404 158.375,182.639 158.488,182.710 158.301 C 182.769 158.146,183.061 158.019,183.359 158.019 C 183.895 158.019,184.121 157.872,185.603 156.556 C 186.777 155.514,187.027 155.318,187.176 155.318 C 187.398 155.318,187.957 154.696,187.957 154.449 C 187.957 154.325,188.185 154.191,188.464 154.152 C 188.789 154.106,188.996 153.899,189.042 153.573 C 189.090 153.235,189.268 153.067,189.578 153.067 C 189.834 153.067,190.377 152.712,190.786 152.279 C 191.194 151.846,191.637 151.491,191.769 151.491 C 191.901 151.491,192.009 151.383,192.009 151.250 C 192.009 150.990,192.442 150.496,192.801 150.346 C 193.456 150.072,194.705 149.089,194.707 148.846 C 194.709 148.692,194.816 148.565,194.946 148.565 C 195.075 148.565,195.434 148.312,195.744 148.002 C 196.053 147.693,196.388 147.440,196.489 147.440 C 196.589 147.440,197.140 146.984,197.713 146.427 C 198.286 145.869,198.869 145.414,199.008 145.414 C 199.147 145.414,199.210 145.282,199.148 145.122 C 199.082 144.948,199.219 144.817,199.488 144.796 C 199.736 144.778,200.259 144.402,200.650 143.963 C 201.042 143.523,201.486 143.163,201.638 143.163 C 201.789 143.163,201.913 143.011,201.913 142.825 C 201.913 142.639,202.019 142.487,202.148 142.487 C 202.277 142.487,202.656 142.234,202.990 141.925 C 203.324 141.615,203.681 141.362,203.784 141.362 C 204.052 141.362,204.615 140.763,204.615 140.478 C 204.615 140.345,204.729 140.236,204.869 140.236 C 205.010 140.236,205.288 140.048,205.489 139.818 C 205.689 139.588,206.080 139.328,206.359 139.240 C 206.638 139.152,206.866 138.935,206.866 138.758 C 206.866 138.581,206.941 138.435,207.034 138.435 C 207.424 138.435,210.242 135.916,210.242 135.567 C 210.242 135.412,210.423 135.284,210.645 135.284 C 211.136 135.284,212.943 133.750,212.943 133.333 C 212.943 133.168,213.159 133.033,213.423 133.033 C 213.687 133.033,214.237 132.679,214.646 132.245 C 215.055 131.812,215.497 131.458,215.629 131.458 C 215.761 131.458,215.869 131.349,215.869 131.216 C 215.869 130.956,216.302 130.462,216.661 130.312 C 217.332 130.032,218.565 129.053,218.568 128.799 C 218.569 128.637,218.659 128.559,218.767 128.626 C 218.876 128.693,219.153 128.497,219.384 128.189 C 219.614 127.882,219.942 127.631,220.111 127.631 C 220.281 127.631,220.369 127.500,220.308 127.339 C 220.241 127.166,220.376 127.034,220.639 127.014 C 220.883 126.996,221.422 126.621,221.837 126.180 C 222.252 125.740,222.700 125.380,222.832 125.380 C 222.964 125.380,223.073 125.228,223.073 125.042 C 223.073 124.856,223.250 124.701,223.467 124.697 C 223.929 124.689,224.648 124.188,224.648 123.874 C 224.648 123.753,224.902 123.520,225.211 123.354 C 225.521 123.188,225.774 122.918,225.774 122.753 C 225.774 122.588,225.926 122.454,226.111 122.454 C 226.297 122.454,226.449 122.369,226.449 122.265 C 226.449 122.161,226.702 121.960,227.012 121.819 C 227.321 121.678,227.575 121.421,227.575 121.248 C 227.575 121.074,227.881 120.806,228.255 120.651 C 228.630 120.496,229.009 120.250,229.099 120.106 C 229.189 119.961,229.592 119.613,229.994 119.332 C 230.397 119.051,230.726 118.676,230.726 118.499 C 230.726 118.322,230.932 118.177,231.183 118.177 C 231.435 118.177,231.699 118.025,231.770 117.839 C 231.841 117.653,231.997 117.501,232.117 117.501 C 232.409 117.501,232.977 116.917,232.977 116.617 C 232.977 116.484,233.083 116.376,233.212 116.376 C 233.341 116.376,233.720 116.123,234.054 115.813 C 234.387 115.504,234.751 115.250,234.862 115.250 C 234.973 115.250,235.660 114.643,236.389 113.900 C 237.118 113.157,237.799 112.549,237.902 112.549 C 238.004 112.549,238.362 112.296,238.696 111.986 C 239.030 111.677,239.356 111.424,239.420 111.424 C 239.632 111.424,240.180 110.786,240.180 110.539 C 240.180 110.407,240.332 110.298,240.518 110.298 C 240.703 110.298,240.855 110.204,240.855 110.088 C 240.855 109.973,241.081 109.807,241.356 109.720 C 241.631 109.632,242.286 109.119,242.811 108.579 C 243.335 108.039,243.859 107.597,243.974 107.597 C 244.089 107.597,244.242 107.445,244.313 107.259 C 244.385 107.074,244.596 106.922,244.783 106.922 C 244.970 106.922,245.187 106.669,245.265 106.359 C 245.353 106.007,245.565 105.796,245.832 105.796 C 246.066 105.796,246.258 105.695,246.258 105.571 C 246.258 105.447,246.410 105.346,246.595 105.346 C 246.781 105.346,246.933 105.194,246.933 105.008 C 246.933 104.823,247.062 104.671,247.221 104.671 C 247.531 104.671,248.602 103.813,250.339 102.172 C 251.475 101.098,251.804 100.071,251.097 99.800 C 250.912 99.729,250.760 99.479,250.760 99.244 C 250.760 99.010,250.658 98.818,250.535 98.818 C 250.411 98.818,250.310 98.666,250.310 98.481 C 250.310 98.295,250.175 98.143,250.010 98.143 C 249.845 98.143,249.575 97.890,249.409 97.580 C 249.243 97.271,249.017 97.017,248.905 97.017 C 248.576 97.017,248.059 96.404,248.059 96.014 C 248.059 95.815,247.907 95.594,247.721 95.523 C 247.535 95.452,247.383 95.296,247.383 95.176 C 247.383 94.878,246.797 94.316,246.486 94.316 C 246.346 94.316,246.286 94.228,246.353 94.120 C 246.420 94.011,246.223 93.734,245.916 93.503 C 245.609 93.273,245.357 92.967,245.357 92.824 C 245.357 92.681,245.205 92.505,245.020 92.434 C 244.834 92.363,244.682 92.149,244.682 91.960 C 244.682 91.770,244.581 91.615,244.457 91.615 C 244.333 91.615,244.232 91.463,244.232 91.277 C 244.232 91.092,244.097 90.940,243.932 90.940 C 243.767 90.940,243.497 90.687,243.331 90.377 C 243.166 90.068,242.895 89.814,242.731 89.814 C 242.566 89.814,242.428 89.637,242.424 89.420 C 242.416 88.958,241.914 88.239,241.600 88.239 C 241.480 88.239,241.246 87.985,241.080 87.676 C 240.915 87.366,240.644 87.113,240.480 87.113 C 240.315 87.113,240.180 86.976,240.180 86.808 C 240.180 86.641,239.927 86.230,239.617 85.896 C 239.308 85.562,239.055 85.193,239.055 85.076 C 239.055 84.958,238.900 84.862,238.711 84.862 C 238.523 84.862,238.272 84.609,238.154 84.299 C 238.037 83.990,237.836 83.737,237.710 83.737 C 237.583 83.737,237.479 83.620,237.479 83.478 C 237.479 83.336,237.139 82.889,236.723 82.485 C 236.307 82.081,235.905 81.590,235.829 81.393 C 235.754 81.196,235.588 81.035,235.460 81.035 C 235.332 81.035,235.228 80.920,235.228 80.780 C 235.228 80.639,234.975 80.290,234.665 80.003 C 234.356 79.716,234.102 79.324,234.102 79.133 C 234.102 78.841,233.754 78.691,233.192 78.742 C 233.125 78.748,233.056 78.559,233.038 78.322 C 233.020 78.085,232.644 77.519,232.203 77.065 C 231.762 76.611,231.401 76.154,231.401 76.049 C 231.401 75.944,231.293 75.858,231.160 75.858 C 230.841 75.858,230.483 75.457,229.952 74.503 C 229.712 74.072,229.079 73.293,228.545 72.771 C 228.011 72.250,227.575 71.713,227.575 71.579 C 227.575 71.445,227.078 70.839,226.472 70.232 C 225.865 69.626,225.334 69.048,225.290 68.948 C 225.065 68.433,224.061 67.085,223.901 67.082 C 223.633 67.078,223.073 66.478,223.073 66.195 C 223.073 66.062,222.921 65.954,222.735 65.954 C 222.549 65.954,222.397 65.802,222.397 65.616 C 222.397 65.431,222.296 65.279,222.172 65.279 C 222.048 65.279,221.947 65.148,221.947 64.988 C 221.947 64.828,221.593 64.321,221.159 63.862 C 220.726 63.402,220.371 62.925,220.371 62.802 C 220.371 62.678,220.241 62.577,220.082 62.577 C 219.923 62.577,219.610 62.268,219.387 61.889 C 219.163 61.511,218.635 60.856,218.213 60.434 C 217.791 60.012,217.445 59.561,217.445 59.434 C 217.445 59.306,217.323 59.226,217.174 59.257 C 217.025 59.288,216.898 59.188,216.893 59.034 C 216.880 58.701,215.763 57.625,215.429 57.625 C 215.300 57.625,215.194 57.418,215.194 57.164 C 215.194 56.910,214.840 56.337,214.406 55.891 C 213.973 55.445,213.618 54.994,213.618 54.889 C 213.618 54.785,213.467 54.699,213.281 54.699 C 213.095 54.699,212.943 54.548,212.943 54.364 C 212.943 53.844,210.940 51.548,210.486 51.548 C 210.352 51.548,210.242 51.349,210.242 51.106 C 210.242 50.863,209.634 50.049,208.891 49.297 C 208.149 48.544,207.541 47.832,207.541 47.712 C 207.541 47.593,207.444 47.496,207.326 47.496 C 207.208 47.496,206.943 47.141,206.738 46.708 C 206.532 46.275,206.241 45.920,206.090 45.920 C 205.939 45.920,205.681 45.667,205.515 45.357 C 205.349 45.048,205.079 44.795,204.914 44.795 C 204.749 44.795,204.611 44.617,204.607 44.401 C 204.599 43.914,204.092 43.219,203.746 43.219 C 203.604 43.219,203.489 43.143,203.488 43.050 C 203.488 42.775,202.142 41.285,202.117 41.531 C 202.104 41.654,202.024 41.503,201.940 41.193 C 201.855 40.884,201.573 40.535,201.312 40.419 C 201.052 40.303,200.707 39.872,200.546 39.462 C 200.385 39.052,200.121 38.717,199.958 38.717 C 199.795 38.717,199.662 38.565,199.662 38.379 C 199.662 38.194,199.568 38.042,199.452 38.042 C 199.337 38.042,199.180 37.844,199.103 37.603 C 199.027 37.362,198.767 37.102,198.525 37.025 C 198.284 36.948,198.087 36.739,198.087 36.560 C 198.087 36.381,197.587 35.738,196.976 35.130 C 196.365 34.523,195.704 33.714,195.507 33.333 C 195.310 32.951,195.050 32.639,194.930 32.639 C 194.809 32.639,194.710 32.487,194.710 32.302 C 194.710 32.067,194.474 31.964,193.938 31.964 C 193.514 31.964,193.015 32.116,192.829 32.302 M194.521 44.170 C 195.244 44.879,195.836 45.599,195.836 45.770 C 195.836 45.942,196.089 46.272,196.398 46.505 C 196.708 46.737,196.961 47.055,196.961 47.212 C 196.961 47.368,197.113 47.496,197.299 47.496 C 197.485 47.496,197.636 47.648,197.636 47.833 C 197.636 48.019,197.738 48.171,197.862 48.171 C 197.985 48.171,198.087 48.307,198.087 48.474 C 198.087 48.640,198.720 49.425,199.493 50.218 C 200.267 51.011,200.900 51.761,200.900 51.885 C 200.900 52.009,201.128 52.210,201.407 52.332 C 201.685 52.455,201.913 52.672,201.913 52.815 C 201.913 52.958,202.065 53.133,202.251 53.205 C 202.437 53.276,202.589 53.497,202.589 53.695 C 202.589 54.092,203.108 54.699,203.447 54.699 C 203.565 54.699,203.717 54.909,203.784 55.166 C 203.851 55.423,204.116 55.688,204.373 55.755 C 204.637 55.824,204.840 56.061,204.840 56.301 C 204.840 56.705,206.453 58.526,206.811 58.526 C 206.904 58.526,207.121 58.855,207.293 59.257 C 207.464 59.660,207.825 60.191,208.095 60.439 C 208.364 60.687,208.654 61.076,208.739 61.304 C 208.824 61.533,209.096 61.773,209.343 61.837 C 209.590 61.902,209.792 62.048,209.792 62.163 C 209.792 62.278,210.045 62.645,210.355 62.979 C 210.664 63.313,210.917 63.670,210.917 63.772 C 210.917 63.874,211.272 64.293,211.705 64.701 C 212.138 65.110,212.493 65.559,212.493 65.699 C 212.493 65.839,212.645 65.954,212.831 65.954 C 213.018 65.954,213.168 66.154,213.168 66.404 C 213.168 66.652,213.270 66.854,213.393 66.854 C 213.517 66.854,213.618 67.006,213.618 67.192 C 213.618 67.378,213.727 67.530,213.860 67.530 C 214.171 67.530,214.744 68.102,214.744 68.414 C 214.744 68.547,214.859 68.655,215.001 68.655 C 215.346 68.655,215.853 69.350,215.862 69.837 C 215.867 70.105,216.049 70.231,216.432 70.231 C 216.852 70.231,216.995 70.350,216.995 70.698 C 216.995 70.955,217.299 71.470,217.670 71.841 C 218.042 72.212,218.346 72.442,218.346 72.352 C 218.346 72.261,218.548 72.370,218.796 72.594 C 219.043 72.818,219.246 73.107,219.246 73.235 C 219.246 73.363,219.097 73.272,218.915 73.031 C 218.734 72.791,218.582 72.697,218.578 72.823 C 218.574 72.949,219.077 73.606,219.696 74.282 C 220.315 74.959,220.822 75.591,220.822 75.686 C 220.822 75.781,220.974 75.858,221.159 75.858 C 221.345 75.858,221.497 75.967,221.497 76.099 C 221.497 76.232,221.624 76.482,221.778 76.654 C 222.390 77.336,222.622 77.646,222.622 77.778 C 222.622 78.007,223.248 78.559,223.507 78.559 C 223.639 78.559,223.748 78.771,223.748 79.031 C 223.748 79.313,223.929 79.549,224.198 79.620 C 224.446 79.684,224.648 79.877,224.648 80.049 C 224.648 80.220,224.753 80.360,224.880 80.360 C 225.008 80.360,225.178 80.537,225.258 80.754 C 225.337 80.971,225.638 81.371,225.926 81.644 C 226.214 81.916,226.449 82.202,226.449 82.279 C 226.449 82.508,227.074 83.061,227.333 83.061 C 227.466 83.061,227.575 83.297,227.575 83.586 C 227.575 83.915,227.784 84.223,228.137 84.412 C 228.447 84.578,228.700 84.805,228.700 84.916 C 228.700 85.197,229.291 85.763,229.584 85.763 C 229.717 85.763,229.826 85.890,229.826 86.046 C 229.826 86.202,230.079 86.603,230.388 86.937 C 230.698 87.271,230.951 87.649,230.951 87.779 C 230.951 87.908,231.060 88.014,231.192 88.014 C 231.504 88.014,232.077 88.586,232.077 88.898 C 232.077 89.030,232.178 89.139,232.302 89.139 C 232.425 89.139,232.527 89.291,232.527 89.477 C 232.527 89.662,232.660 89.814,232.822 89.814 C 232.985 89.814,233.257 90.169,233.427 90.602 C 233.597 91.035,233.826 91.390,233.935 91.390 C 234.173 91.390,234.778 91.966,234.778 92.192 C 234.778 92.280,235.031 92.586,235.340 92.873 C 235.650 93.160,235.903 93.535,235.903 93.707 C 235.903 93.878,236.156 94.134,236.466 94.275 C 236.775 94.416,237.029 94.640,237.029 94.773 C 237.029 94.905,237.380 95.376,237.810 95.819 C 238.240 96.261,238.652 96.813,238.726 97.046 C 238.800 97.278,239.056 97.468,239.295 97.468 C 239.582 97.468,239.730 97.623,239.730 97.925 C 239.730 98.176,239.882 98.440,240.068 98.512 C 240.253 98.583,240.405 98.782,240.405 98.955 C 240.405 99.127,240.496 99.268,240.606 99.268 C 240.717 99.268,240.862 99.412,240.930 99.588 C 241.061 99.930,240.391 100.844,240.009 100.844 C 239.882 100.844,239.720 100.996,239.648 101.182 C 239.577 101.367,239.371 101.519,239.191 101.519 C 239.010 101.519,238.663 101.773,238.420 102.082 C 238.176 102.392,237.908 102.645,237.824 102.645 C 237.584 102.645,237.029 103.263,237.029 103.529 C 237.029 103.662,236.775 103.770,236.466 103.770 C 236.060 103.770,235.903 103.891,235.903 104.205 C 235.903 104.453,235.695 104.707,235.421 104.794 C 234.864 104.970,233.518 106.269,233.605 106.545 C 233.637 106.647,233.560 106.666,233.433 106.588 C 233.306 106.509,233.202 106.552,233.202 106.683 C 233.202 106.815,233.050 106.922,232.864 106.922 C 232.679 106.922,232.527 107.074,232.527 107.259 C 232.527 107.445,232.331 107.597,232.093 107.597 C 231.854 107.597,231.460 107.850,231.216 108.160 C 230.973 108.469,230.705 108.723,230.621 108.723 C 230.381 108.723,229.826 109.340,229.826 109.607 C 229.826 109.740,229.646 109.848,229.426 109.848 C 229.207 109.848,228.398 110.456,227.630 111.199 C 226.861 111.941,226.153 112.549,226.057 112.549 C 225.961 112.549,225.609 112.802,225.275 113.112 C 224.941 113.421,224.551 113.675,224.409 113.675 C 224.266 113.675,224.208 113.827,224.279 114.012 C 224.358 114.218,224.280 114.350,224.078 114.350 C 223.897 114.350,223.748 114.451,223.748 114.575 C 223.748 114.699,223.639 114.800,223.507 114.800 C 223.151 114.800,222.622 115.392,222.622 115.790 C 222.622 116.006,222.495 116.088,222.285 116.007 C 221.966 115.885,221.740 116.047,220.119 117.558 C 219.754 117.898,219.348 118.177,219.216 118.177 C 219.084 118.177,218.480 118.683,217.874 119.302 C 217.268 119.921,216.664 120.428,216.533 120.428 C 216.401 120.428,216.349 120.517,216.416 120.627 C 216.484 120.737,216.331 120.881,216.075 120.948 C 215.820 121.015,215.558 121.270,215.494 121.516 C 215.430 121.761,215.210 122.019,215.005 122.089 C 214.194 122.364,213.168 123.187,213.168 123.563 C 213.168 123.696,213.017 123.804,212.833 123.804 C 212.648 123.804,212.370 124.007,212.216 124.254 C 212.061 124.502,211.809 124.705,211.655 124.705 C 211.501 124.705,210.892 125.161,210.302 125.718 C 209.712 126.276,209.012 126.934,208.747 127.182 C 208.482 127.429,208.146 127.631,207.999 127.631 C 207.680 127.631,207.091 128.188,207.091 128.489 C 207.091 128.607,206.880 128.759,206.624 128.826 C 206.367 128.893,206.102 129.158,206.035 129.415 C 205.968 129.672,205.819 129.882,205.704 129.882 C 205.508 129.882,205.242 130.069,204.510 130.726 C 204.338 130.881,204.125 131.007,204.038 131.007 C 203.951 131.007,203.545 131.362,203.137 131.795 C 202.728 132.228,202.286 132.583,202.154 132.583 C 202.021 132.583,201.913 132.735,201.913 132.921 C 201.913 133.108,201.713 133.258,201.463 133.258 C 201.216 133.258,201.013 133.360,201.013 133.483 C 201.013 133.607,200.930 133.708,200.828 133.708 C 200.726 133.708,200.100 134.215,199.437 134.834 C 198.774 135.453,198.098 135.959,197.934 135.959 C 197.767 135.959,197.636 136.206,197.636 136.522 C 197.636 136.972,197.524 137.085,197.074 137.085 C 196.764 137.085,196.511 137.186,196.511 137.310 C 196.511 137.434,196.359 137.535,196.173 137.535 C 195.988 137.535,195.836 137.665,195.836 137.824 C 195.836 137.983,195.506 138.307,195.104 138.545 C 194.702 138.782,194.176 139.158,193.936 139.381 C 193.696 139.604,193.418 139.786,193.317 139.786 C 193.217 139.786,193.134 139.938,193.134 140.124 C 193.134 140.310,193.026 140.461,192.893 140.461 C 192.609 140.461,192.009 141.024,192.009 141.291 C 192.009 141.393,191.705 141.612,191.334 141.776 C 190.962 141.940,190.319 142.404,189.905 142.807 C 189.490 143.209,188.974 143.606,188.758 143.689 C 188.542 143.772,188.312 144.042,188.247 144.289 C 188.183 144.536,188.042 144.738,187.934 144.738 C 187.570 144.738,185.949 145.974,185.940 146.258 C 185.935 146.412,185.823 146.539,185.690 146.539 C 185.391 146.539,184.806 147.107,184.806 147.398 C 184.806 147.630,183.696 147.858,183.266 147.714 C 183.123 147.666,183.005 147.521,183.005 147.390 C 183.005 147.260,182.772 146.937,182.486 146.673 C 182.201 146.408,181.900 146.017,181.818 145.803 C 181.736 145.589,181.463 145.414,181.211 145.414 C 180.911 145.414,180.754 145.266,180.754 144.983 C 180.754 144.746,180.416 144.204,180.003 143.779 C 179.591 143.354,179.185 142.829,179.102 142.613 C 179.019 142.396,178.749 142.167,178.502 142.102 C 178.255 142.037,178.053 141.801,178.053 141.577 C 178.053 141.353,177.800 140.970,177.490 140.727 C 177.181 140.483,176.927 140.215,176.927 140.132 C 176.927 139.911,176.319 139.336,176.085 139.336 C 175.976 139.336,175.747 138.981,175.577 138.548 C 175.407 138.115,175.033 137.584,174.747 137.369 C 174.461 137.154,174.226 136.848,174.226 136.689 C 174.226 136.530,173.973 136.285,173.663 136.144 C 173.354 136.003,173.101 135.741,173.101 135.562 C 173.101 135.366,172.967 135.287,172.766 135.365 C 172.582 135.435,172.452 135.421,172.478 135.332 C 172.555 135.074,171.883 133.708,171.679 133.708 C 171.412 133.708,170.850 133.109,170.850 132.824 C 170.850 132.692,170.741 132.583,170.609 132.583 C 170.247 132.583,169.724 131.989,169.724 131.579 C 169.724 131.381,169.209 130.690,168.579 130.044 C 167.949 129.398,167.269 128.590,167.067 128.250 C 166.866 127.909,166.587 127.631,166.448 127.631 C 166.309 127.631,166.080 127.378,165.939 127.068 C 165.798 126.759,165.579 126.505,165.452 126.505 C 165.326 126.505,165.222 126.353,165.222 126.168 C 165.222 125.982,165.146 125.830,165.053 125.830 C 164.961 125.829,164.581 125.376,164.209 124.822 C 163.838 124.267,163.407 123.812,163.253 123.809 C 163.098 123.806,162.971 123.696,162.971 123.563 C 162.971 123.251,162.399 122.679,162.087 122.679 C 161.954 122.679,161.846 122.527,161.846 122.341 C 161.846 122.155,161.768 122.003,161.672 122.003 C 161.576 122.003,161.307 121.649,161.074 121.216 C 160.840 120.782,160.564 120.428,160.460 120.428 C 160.355 120.428,160.270 120.316,160.270 120.179 C 160.270 120.042,160.023 119.735,159.721 119.498 C 159.418 119.260,159.108 118.865,159.030 118.621 C 158.953 118.377,158.693 118.177,158.454 118.177 C 158.175 118.177,158.019 118.022,158.019 117.743 C 158.019 117.504,157.766 117.110,157.456 116.866 C 157.147 116.623,156.894 116.349,156.894 116.258 C 156.894 116.166,156.539 115.757,156.106 115.348 C 155.672 114.940,155.318 114.461,155.318 114.284 C 155.318 114.107,155.065 113.773,154.755 113.540 C 154.446 113.308,154.192 112.990,154.192 112.833 C 154.192 112.677,154.084 112.549,153.951 112.549 C 153.666 112.549,153.067 111.987,153.067 111.719 C 153.067 111.616,152.814 111.259,152.504 110.925 C 152.195 110.591,151.941 110.212,151.941 110.083 C 151.941 109.954,151.833 109.848,151.700 109.848 C 151.389 109.848,150.816 109.275,150.816 108.964 C 150.816 108.831,150.740 108.722,150.647 108.722 C 150.554 108.722,150.148 108.237,149.744 107.644 C 149.340 107.052,148.809 106.422,148.562 106.245 C 148.316 106.067,148.115 105.792,148.115 105.634 C 148.115 105.476,148.006 105.346,147.874 105.346 C 147.527 105.346,146.989 104.759,146.989 104.381 C 146.989 104.204,146.736 103.868,146.427 103.636 C 146.117 103.404,145.864 103.085,145.864 102.929 C 145.864 102.773,145.712 102.645,145.526 102.645 C 145.340 102.645,145.189 102.539,145.189 102.410 C 145.189 102.281,144.935 101.902,144.626 101.568 C 144.316 101.234,144.063 100.834,144.063 100.678 C 144.063 100.522,143.915 100.394,143.733 100.394 C 143.552 100.394,143.291 100.183,143.153 99.926 C 142.616 98.923,140.875 97.017,140.495 97.017 C 140.353 97.017,140.236 96.808,140.236 96.551 C 140.236 96.053,139.749 95.442,139.352 95.442 C 139.219 95.442,139.111 95.290,139.111 95.104 C 139.111 94.918,139.035 94.766,138.942 94.766 C 138.849 94.765,138.575 94.469,138.332 94.107 C 138.089 93.744,137.795 93.507,137.678 93.579 C 137.561 93.651,137.537 93.595,137.625 93.453 C 137.718 93.302,137.267 92.682,136.534 91.955 C 135.847 91.273,135.284 90.657,135.284 90.586 C 135.284 90.320,135.941 89.814,136.288 89.814 C 136.487 89.814,136.707 89.662,136.778 89.477 C 136.850 89.291,137.006 89.139,137.125 89.139 C 137.417 89.139,137.985 88.555,137.985 88.255 C 137.985 88.122,138.091 88.014,138.220 88.014 C 138.349 88.014,138.728 87.760,139.062 87.451 C 139.396 87.141,139.797 86.888,139.953 86.888 C 140.109 86.888,140.236 86.635,140.236 86.325 C 140.236 85.875,140.349 85.763,140.799 85.763 C 141.109 85.763,141.362 85.678,141.362 85.575 C 141.362 85.473,141.607 85.257,141.906 85.097 C 142.205 84.937,142.499 84.616,142.560 84.383 C 142.626 84.130,142.800 84.009,142.991 84.083 C 143.173 84.153,143.495 83.960,143.740 83.633 C 143.977 83.319,144.254 83.061,144.358 83.061 C 144.626 83.061,145.189 82.463,145.189 82.177 C 145.189 82.044,145.297 81.936,145.430 81.936 C 145.741 81.936,146.314 81.363,146.314 81.052 C 146.314 80.919,146.508 80.810,146.745 80.810 C 146.982 80.810,147.524 80.473,147.949 80.060 C 148.374 79.647,148.899 79.241,149.115 79.158 C 149.331 79.075,149.561 78.805,149.626 78.558 C 149.690 78.311,149.859 78.109,150.000 78.109 C 150.142 78.109,150.531 77.856,150.865 77.546 C 151.199 77.237,151.534 76.984,151.610 76.984 C 151.839 76.984,152.392 76.358,152.392 76.099 C 152.392 75.967,152.544 75.858,152.729 75.858 C 152.915 75.858,153.067 75.757,153.067 75.633 C 153.067 75.509,153.218 75.408,153.402 75.408 C 153.586 75.408,154.245 74.902,154.868 74.282 C 155.490 73.663,156.040 73.157,156.090 73.157 C 156.212 73.157,157.251 72.286,158.039 71.525 C 158.391 71.185,158.784 70.906,158.912 70.906 C 159.040 70.906,159.145 70.754,159.145 70.568 C 159.145 70.383,159.250 70.231,159.380 70.231 C 159.509 70.231,159.888 69.977,160.221 69.668 C 160.555 69.358,160.913 69.105,161.015 69.105 C 161.283 69.105,161.846 68.506,161.846 68.221 C 161.846 68.088,161.975 67.980,162.134 67.980 C 162.292 67.980,162.568 67.777,162.746 67.530 C 162.925 67.282,163.188 67.079,163.332 67.079 C 163.476 67.079,163.999 66.674,164.494 66.179 C 164.989 65.684,165.508 65.279,165.646 65.279 C 165.784 65.279,165.898 65.203,165.899 65.110 C 165.900 65.017,166.254 64.700,166.687 64.405 C 167.119 64.111,167.473 63.680,167.473 63.449 C 167.473 63.194,167.633 63.028,167.876 63.028 C 168.367 63.028,170.174 61.494,170.174 61.077 C 170.174 60.912,170.326 60.777,170.512 60.777 C 170.698 60.777,170.850 60.675,170.850 60.551 C 170.850 60.428,171.038 60.326,171.268 60.326 C 171.499 60.326,171.877 60.073,172.110 59.764 C 172.342 59.454,172.660 59.201,172.817 59.201 C 172.973 59.201,173.101 59.092,173.101 58.960 C 173.101 58.621,173.685 58.075,174.048 58.075 C 174.215 58.075,174.516 57.898,174.717 57.681 C 175.666 56.659,177.141 55.374,177.366 55.374 C 177.504 55.374,177.675 55.222,177.746 55.037 C 177.818 54.851,178.017 54.699,178.190 54.699 C 178.362 54.699,178.503 54.598,178.503 54.474 C 178.503 54.350,178.655 54.249,178.841 54.249 C 179.026 54.249,179.178 54.140,179.178 54.008 C 179.178 53.696,179.751 53.123,180.063 53.123 C 180.195 53.123,180.304 53.015,180.304 52.882 C 180.304 52.485,180.915 51.998,181.413 51.998 C 181.670 51.998,181.880 51.863,181.880 51.698 C 181.880 51.533,182.133 51.263,182.442 51.097 C 182.752 50.932,183.005 50.686,183.005 50.552 C 183.005 50.417,183.284 50.182,183.624 50.029 C 183.965 49.877,184.893 49.145,185.687 48.402 C 186.481 47.660,187.317 46.993,187.544 46.921 C 187.771 46.849,187.957 46.594,187.957 46.355 C 187.957 46.068,188.113 45.920,188.414 45.920 C 188.666 45.920,188.930 45.768,189.001 45.582 C 189.073 45.397,189.229 45.245,189.348 45.245 C 189.640 45.245,190.208 44.661,190.208 44.360 C 190.208 44.228,190.336 44.119,190.492 44.119 C 190.648 44.119,191.049 43.866,191.382 43.557 C 191.716 43.247,192.052 42.994,192.128 42.994 C 192.204 42.994,192.432 42.828,192.634 42.626 C 192.934 42.326,193.021 42.316,193.104 42.570 C 193.161 42.741,193.798 43.461,194.521 44.170 M189.573 58.188 C 189.330 58.497,189.062 58.751,188.978 58.751 C 188.738 58.751,188.182 59.368,188.182 59.635 C 188.182 59.768,188.074 59.876,187.941 59.876 C 187.567 59.876,187.012 60.522,187.168 60.775 C 187.249 60.906,187.051 61.002,186.699 61.002 C 186.298 61.002,185.827 61.271,185.324 61.790 C 184.903 62.223,184.487 62.577,184.399 62.577 C 184.311 62.577,183.965 62.831,183.632 63.140 C 183.298 63.450,182.919 63.703,182.790 63.703 C 182.661 63.703,182.555 63.811,182.555 63.944 C 182.555 64.206,182.001 64.828,181.767 64.828 C 181.540 64.828,180.979 65.447,180.979 65.697 C 180.979 65.821,180.751 65.955,180.473 65.994 C 180.147 66.041,179.941 66.247,179.894 66.573 C 179.842 66.939,179.671 67.079,179.275 67.079 C 178.974 67.079,178.728 67.181,178.728 67.304 C 178.728 67.428,178.576 67.530,178.391 67.530 C 178.205 67.530,178.053 67.638,178.053 67.771 C 178.053 68.051,177.600 68.541,177.218 68.675 C 176.916 68.781,174.986 70.395,173.675 71.638 C 173.186 72.102,172.709 72.482,172.615 72.482 C 172.522 72.482,172.193 72.735,171.883 73.044 C 171.574 73.354,171.232 73.607,171.123 73.607 C 171.015 73.607,170.790 73.860,170.625 74.170 C 170.459 74.479,170.189 74.733,170.024 74.733 C 169.859 74.733,169.724 74.885,169.724 75.070 C 169.724 75.256,169.547 75.411,169.330 75.415 C 168.844 75.424,168.149 75.931,168.149 76.277 C 168.149 76.418,168.040 76.533,167.907 76.533 C 167.596 76.533,167.023 77.106,167.023 77.418 C 167.023 77.550,166.828 77.659,166.589 77.659 C 166.351 77.659,165.956 77.912,165.713 78.222 C 165.469 78.531,165.180 78.784,165.071 78.784 C 164.961 78.784,164.725 78.987,164.547 79.235 C 164.369 79.482,164.093 79.685,163.935 79.685 C 163.776 79.685,163.647 79.814,163.647 79.971 C 163.647 80.129,163.292 80.449,162.859 80.682 C 162.397 80.931,162.071 81.278,162.071 81.521 C 162.071 81.788,161.908 81.936,161.614 81.936 C 161.362 81.936,161.098 82.088,161.027 82.273 C 160.956 82.459,160.800 82.611,160.680 82.611 C 160.388 82.611,159.820 83.195,159.820 83.495 C 159.820 83.628,159.555 83.737,159.231 83.737 C 158.724 83.737,158.657 83.815,158.750 84.301 C 158.837 84.758,158.799 84.818,158.551 84.611 C 158.325 84.424,158.244 84.424,158.244 84.609 C 158.244 84.748,158.129 84.862,157.989 84.862 C 157.848 84.862,157.517 85.096,157.252 85.381 C 156.988 85.667,156.587 85.971,156.361 86.058 C 156.135 86.144,155.898 86.417,155.833 86.664 C 155.768 86.911,155.562 87.113,155.375 87.113 C 155.187 87.113,154.677 87.491,154.241 87.954 C 153.805 88.416,153.286 88.796,153.089 88.798 C 152.889 88.800,152.697 89.026,152.657 89.308 C 152.618 89.586,152.441 89.814,152.263 89.814 C 152.086 89.814,151.941 89.963,151.941 90.145 C 151.941 90.327,151.807 90.424,151.642 90.361 C 151.204 90.193,149.690 91.666,149.690 92.261 C 149.690 92.537,149.944 92.997,150.253 93.284 C 150.563 93.570,150.816 93.917,150.816 94.053 C 150.816 94.189,151.044 94.420,151.322 94.566 C 151.601 94.713,151.911 94.971,152.012 95.142 C 152.112 95.312,152.268 95.405,152.359 95.350 C 152.449 95.294,152.540 95.467,152.560 95.735 C 152.580 96.004,152.703 96.258,152.832 96.301 C 152.961 96.344,153.067 96.523,153.067 96.699 C 153.067 96.874,153.207 97.017,153.378 97.017 C 153.550 97.017,153.745 97.228,153.812 97.484 C 153.879 97.741,154.144 98.006,154.401 98.073 C 154.658 98.141,154.868 98.372,154.868 98.588 C 154.868 98.803,155.476 99.625,156.218 100.412 C 156.961 101.200,157.569 101.929,157.569 102.031 C 157.569 102.133,157.923 102.582,158.357 103.028 C 158.790 103.474,159.145 103.925,159.145 104.030 C 159.145 104.135,159.297 104.221,159.482 104.221 C 159.668 104.221,159.820 104.322,159.820 104.446 C 159.820 104.569,159.969 104.671,160.151 104.671 C 160.338 104.671,160.430 104.804,160.363 104.979 C 160.298 105.149,160.402 105.446,160.595 105.639 C 160.788 105.831,160.945 106.054,160.945 106.134 C 160.945 106.368,161.567 106.922,161.830 106.922 C 161.962 106.922,162.071 107.030,162.071 107.163 C 162.071 107.475,162.644 108.047,162.955 108.047 C 163.088 108.047,163.196 108.246,163.196 108.489 C 163.196 108.732,163.661 109.409,164.229 109.993 C 164.797 110.578,165.519 111.392,165.832 111.803 C 166.145 112.213,166.522 112.549,166.670 112.549 C 166.818 112.549,167.078 112.904,167.248 113.337 C 167.418 113.770,167.690 114.125,167.853 114.125 C 168.016 114.125,168.149 114.268,168.149 114.444 C 168.149 114.619,168.427 114.981,168.768 115.248 C 169.108 115.515,169.244 115.660,169.070 115.570 C 168.863 115.462,168.809 115.495,168.915 115.666 C 169.003 115.809,169.221 115.926,169.400 115.926 C 169.578 115.926,169.724 116.114,169.724 116.344 C 169.724 116.575,169.977 116.953,170.287 117.186 C 170.597 117.418,170.850 117.736,170.850 117.892 C 170.850 118.049,170.985 118.177,171.149 118.177 C 171.314 118.177,171.593 118.454,171.768 118.793 C 172.063 119.360,172.627 120.111,173.234 120.744 C 173.369 120.884,173.601 121.226,173.748 121.502 C 173.896 121.778,174.165 122.003,174.347 122.003 C 174.528 122.003,174.676 122.089,174.676 122.194 C 174.676 122.532,175.505 123.351,175.675 123.181 C 175.765 123.090,175.819 123.118,175.794 123.241 C 175.692 123.747,175.817 124.254,176.043 124.254 C 176.355 124.254,176.927 124.827,176.927 125.139 C 176.927 125.271,177.036 125.380,177.169 125.380 C 177.566 125.380,178.053 125.991,178.053 126.489 C 178.053 126.754,178.199 126.956,178.391 126.956 C 178.576 126.956,178.728 127.064,178.728 127.197 C 178.728 127.508,179.301 128.081,179.613 128.081 C 179.745 128.081,179.854 128.209,179.854 128.365 C 179.854 128.521,180.107 128.921,180.416 129.255 C 180.726 129.589,180.979 129.915,180.979 129.979 C 180.979 130.043,181.410 130.535,181.936 131.074 C 182.462 131.612,183.004 132.248,183.141 132.486 C 183.418 132.971,185.706 133.268,185.706 132.820 C 185.706 132.690,185.858 132.583,186.044 132.583 C 186.230 132.583,186.382 132.443,186.382 132.272 C 186.382 132.100,186.584 131.907,186.831 131.843 C 187.078 131.778,187.350 131.538,187.437 131.310 C 187.658 130.728,188.088 130.332,188.501 130.332 C 188.694 130.332,189.361 129.826,189.983 129.207 C 190.605 128.588,191.220 128.081,191.348 128.081 C 191.476 128.081,191.946 127.727,192.392 127.293 C 192.839 126.860,193.289 126.505,193.394 126.505 C 193.499 126.505,193.585 126.353,193.585 126.168 C 193.585 125.982,193.737 125.830,193.922 125.830 C 194.108 125.830,194.260 125.729,194.260 125.605 C 194.260 125.481,194.415 125.380,194.605 125.380 C 194.794 125.380,195.008 125.228,195.079 125.042 C 195.150 124.856,195.306 124.705,195.426 124.705 C 195.769 124.705,196.286 124.097,196.286 123.694 C 196.286 123.493,196.388 123.390,196.513 123.468 C 196.766 123.624,197.411 123.069,197.411 122.695 C 197.411 122.562,197.563 122.454,197.749 122.454 C 197.935 122.454,198.087 122.352,198.087 122.228 C 198.087 122.105,198.275 122.003,198.505 122.003 C 198.736 122.003,199.114 121.750,199.347 121.441 C 199.579 121.131,199.854 120.878,199.957 120.878 C 200.225 120.878,200.788 120.279,200.788 119.994 C 200.788 119.861,200.965 119.750,201.182 119.748 C 201.682 119.742,204.109 117.447,203.990 117.092 C 203.933 116.920,204.042 116.880,204.297 116.978 C 204.590 117.090,204.659 117.041,204.563 116.790 C 204.486 116.590,204.558 116.451,204.739 116.451 C 204.907 116.451,204.983 116.551,204.907 116.673 C 204.831 116.798,204.885 116.825,205.030 116.735 C 205.173 116.647,205.290 116.435,205.290 116.265 C 205.290 116.095,205.492 115.892,205.740 115.813 C 205.988 115.735,206.190 115.576,206.190 115.460 C 206.190 115.345,206.342 115.250,206.528 115.250 C 206.714 115.250,206.866 115.149,206.866 115.025 C 206.866 114.902,207.017 114.800,207.203 114.800 C 207.389 114.800,207.541 114.648,207.541 114.463 C 207.541 114.277,207.667 114.122,207.822 114.118 C 208.367 114.104,211.927 110.883,211.737 110.576 C 211.676 110.476,211.866 110.374,212.160 110.349 C 212.693 110.305,214.230 109.002,214.128 108.682 C 214.098 108.589,214.225 108.572,214.409 108.642 C 214.620 108.723,214.744 108.637,214.744 108.409 C 214.744 108.210,214.856 108.047,214.993 108.047 C 215.130 108.047,215.188 107.907,215.123 107.735 C 215.041 107.522,215.130 107.456,215.403 107.527 C 215.622 107.585,215.962 107.472,216.157 107.277 C 216.353 107.082,216.578 106.922,216.657 106.922 C 216.891 106.922,217.445 106.300,217.445 106.037 C 217.445 105.905,217.597 105.796,217.783 105.796 C 217.968 105.796,218.120 105.695,218.120 105.571 C 218.120 105.447,218.276 105.346,218.465 105.346 C 218.655 105.346,218.868 105.194,218.939 105.008 C 219.011 104.823,219.167 104.671,219.288 104.671 C 219.408 104.671,219.895 104.291,220.371 103.827 C 221.878 102.355,222.341 101.970,222.603 101.970 C 222.744 101.970,222.955 101.716,223.073 101.407 C 223.190 101.097,223.448 100.844,223.646 100.844 C 224.055 100.844,224.648 100.321,224.648 99.960 C 224.648 99.827,224.800 99.719,224.986 99.719 C 225.554 99.719,225.407 98.310,224.761 97.559 C 224.452 97.199,224.199 96.829,224.198 96.736 C 224.198 96.643,224.046 96.567,223.860 96.567 C 223.675 96.567,223.523 96.459,223.523 96.326 C 223.523 96.014,222.950 95.442,222.638 95.442 C 222.506 95.442,222.397 95.284,222.397 95.091 C 222.397 94.898,222.296 94.802,222.172 94.879 C 222.046 94.957,221.947 94.779,221.947 94.474 C 221.947 94.156,221.713 93.753,221.384 93.507 C 221.075 93.274,220.822 92.999,220.822 92.896 C 220.822 92.628,220.223 92.065,219.937 92.065 C 219.805 92.065,219.696 91.899,219.696 91.696 C 219.696 91.492,219.418 91.052,219.077 90.717 C 218.737 90.382,218.205 89.793,217.895 89.408 C 217.586 89.023,217.189 88.704,217.014 88.698 C 216.838 88.693,216.761 88.623,216.841 88.542 C 216.922 88.462,216.812 88.252,216.598 88.075 C 216.383 87.899,216.349 87.829,216.523 87.919 C 216.731 88.027,216.784 87.994,216.679 87.823 C 216.590 87.680,216.383 87.563,216.218 87.563 C 216.053 87.563,215.857 87.405,215.783 87.211 C 215.708 87.018,215.567 86.910,215.468 86.971 C 215.369 87.032,215.271 86.863,215.251 86.594 C 215.231 86.326,215.108 86.072,214.979 86.028 C 214.850 85.985,214.744 85.807,214.744 85.631 C 214.744 85.456,214.592 85.312,214.406 85.312 C 214.221 85.312,214.069 85.204,214.069 85.072 C 214.069 84.747,212.861 83.259,211.424 81.813 C 210.774 81.159,210.242 80.506,210.242 80.362 C 210.242 80.041,208.875 78.651,208.633 78.725 C 208.536 78.755,208.515 78.628,208.586 78.444 C 208.657 78.260,208.595 78.109,208.449 78.109 C 208.084 78.109,207.631 77.624,207.443 77.029 C 207.356 76.757,207.191 76.533,207.075 76.533 C 206.960 76.533,206.866 76.425,206.866 76.292 C 206.866 76.160,206.721 75.906,206.544 75.730 C 206.367 75.553,206.114 75.408,205.981 75.408 C 205.849 75.408,205.740 75.256,205.740 75.070 C 205.740 74.885,205.651 74.733,205.541 74.733 C 205.432 74.733,205.287 74.520,205.219 74.260 C 205.151 73.999,204.987 73.854,204.855 73.935 C 204.723 74.017,204.615 73.921,204.615 73.722 C 204.615 73.524,204.159 72.898,203.602 72.333 C 203.044 71.768,202.589 71.216,202.589 71.106 C 202.589 70.996,202.444 70.906,202.267 70.906 C 202.090 70.906,201.912 70.678,201.873 70.400 C 201.826 70.074,201.620 69.867,201.294 69.821 C 200.962 69.774,200.788 69.595,200.788 69.299 C 200.788 68.813,200.296 68.205,199.904 68.205 C 199.771 68.205,199.662 68.077,199.662 67.921 C 199.662 67.764,199.409 67.446,199.100 67.214 C 198.790 66.981,198.537 66.640,198.537 66.455 C 198.537 66.271,198.193 65.795,197.773 65.399 C 197.352 65.003,196.969 64.484,196.922 64.247 C 196.866 63.970,196.656 63.822,196.335 63.833 C 195.975 63.846,195.834 63.720,195.830 63.383 C 195.826 63.126,195.420 62.459,194.927 61.902 C 193.863 60.701,193.698 60.524,193.314 60.168 C 192.867 59.754,192.459 59.235,192.459 59.081 C 192.459 57.998,190.258 57.317,189.573 58.188 " stroke="none" fill="#000000" fill-rule="evenodd"></path><path id="path1" d="" stroke="none" fill="#30ec94" fill-rule="evenodd"></path><path id="path2" d="" stroke="none" fill="#30ec94" fill-rule="evenodd"></path><path id="path3" d="" stroke="none" fill="#30ec94" fill-rule="evenodd"></path><path id="path4" d="" stroke="none" fill="#30ec94" fill-rule="evenodd"></path></g></svg>